#!OML:ASF F:\VICON\USERDATA\INSTALL\rory3\rory3.ASF
:FULLY-SPECIFIED
:DEGREES
1346
root -13.651 17.8382 2.39292 15.3393 73.8174 8.4422
lowerback 2.91761 2.29834 -1.55011
upperback 0.410261 3.04052 1.43526
thorax -1.3716 1.53334 2.21338
lowerneck -18.0927 3.64575 -5.33181
upperneck 36.99 10.9088 -4.59701
head 16.4371 3.54689 1.11988
rclavicle -2.57426e-014 4.77083e-015
rhumerus -34.6659 -10.2569 -75.0297
rradius 31.1165
rwrist 19.7199
rhand -22.6771 2.41566
rfingers 7.12502
rthumb 3.75496 -27.531
lclavicle -2.57426e-014 4.77083e-015
lhumerus -39.224 19.6705 70.2176
lradius 23.5736
lwrist -11.7402
lhand -10.8099 24.5838
lfingers 7.12502
lthumb 15.2036 54.0052
rfemur -14.1664 -7.31168 22.453
rtibia 31.0546
rfoot -29.3838 -16.8955
rtoes 11.427
lfemur -22.7615 6.28332 -18.2618
ltibia 37.1253
lfoot -11.4917 9.40284
ltoes -6.18007
1347
root -13.6496 17.8417 2.3682 14.8015 74.6496 7.8299
lowerback 2.9299 2.22864 -1.37004
upperback 0.378355 2.95647 1.56493
thorax -1.40472 1.49186 2.24827
lowerneck -18.0994 3.52782 -5.61208
upperneck 37.0495 10.8514 -4.56927
head 16.4541 3.4904 1.17068
rclavicle 1.48095e-014 1.59028e-014
rhumerus -34.7291 -10.0454 -75.2487
rradius 31.0274
rwrist 20.4019
rhand -23.765 2.05146
rfingers 7.12502
rthumb 2.70431 -27.9111
lclavicle 1.48095e-014 1.59028e-014
lhumerus -39.3933 19.3208 70.7713
lradius 24.1789
lwrist -11.2587
lhand -10.7932 24.6047
lfingers 7.12502
lthumb 15.2197 54.0249
rfemur -14.0873 -7.42213 22.7577
rtibia 30.8648
rfoot -29.7397 -17.2199
rtoes 12.65
lfemur -22.5691 6.13776 -17.6011
ltibia 36.7295
lfoot -11.52 9.60228
ltoes -6.17865
1348
root -13.6499 17.8522 2.3525 14.9969 75.4172 7.97414
lowerback 2.95085 2.18694 -1.57432
upperback 0.330884 2.8957 1.63304
thorax -1.4758 1.46416 2.43335
lowerneck -18.0095 3.41521 -5.83728
upperneck 37.081 10.7233 -4.44603
head 16.4247 3.43067 1.23564
rclavicle -1.0138e-014 2.38542e-015
rhumerus -34.7809 -9.61142 -75.5467
rradius 30.9191
rwrist 20.4438
rhand -23.9536 2.46585
rfingers 7.12502
rthumb 2.52219 -27.499
lclavicle -1.0138e-014 2.38542e-015
lhumerus -39.5097 18.969 71.2187
lradius 24.7497
lwrist -10.572
lhand -10.8203 24.4728
lfingers 7.12502
lthumb 15.1936 53.895
rfemur -14.0164 -7.25618 22.8501
rtibia 30.6911
rfoot -30.1944 -17.7984
rtoes 13.1772
lfemur -22.3046 5.98287 -17.1437
ltibia 36.187
lfoot -11.4299 9.89996
ltoes -6.74334
1349
root -13.6476 17.8611 2.32933 14.9087 76.0523 7.80761
lowerback 2.9228 2.19463 -1.60056
upperback 0.316821 2.90548 1.63373
thorax -1.47641 1.46936 2.44909
lowerneck -18.0312 3.32718 -5.95386
upperneck 37.1626 10.6006 -4.30061
head 16.4518 3.38297 1.29775
rclavicle 2.5842e-015 -7.95139e-015
rhumerus -34.7544 -9.30922 -75.8951
rradius 30.8296
rwrist 20.3794
rhand -23.4499 2.94721
rfingers 7.12502
rthumb 3.00864 -27.0113
lclavicle 2.5842e-015 -7.95139e-015
lhumerus -39.5512 19.0134 71.3927
lradius 25.168
lwrist -10.4907
lhand -11.0942 24.5466
lfingers 7.12502
lthumb 14.9297 53.9886
rfemur -14.0036 -7.16598 22.9498
rtibia 30.5889
rfoot -30.5765 -18.1525
rtoes 13.8001
lfemur -21.993 5.81222 -16.6647
ltibia 35.4851
lfoot -11.2976 10.4618
ltoes -7.29431
1350
root -13.642 17.8625 2.2985 15.2976 76.6155 8.15103
lowerback 2.89133 2.19481 -1.63405
upperback 0.331083 2.9043 1.60685
thorax -1.44435 1.46835 2.44189
lowerneck -18.1097 3.25065 -6.10412
upperneck 37.2118 10.5617 -4.27844
head 16.4884 3.34705 1.33003
rclavicle 3.96575e-014 1.35174e-014
rhumerus -34.7061 -9.01824 -76.2057
rradius 30.8269
rwrist 20.3701
rhand -23.0145 3.01874
rfingers 7.12502
rthumb 3.42906 -26.9334
lclavicle 3.96575e-014 1.35174e-014
lhumerus -39.6194 19.1241 71.6237
lradius 25.6481
lwrist -10.3711
lhand -11.6816 25.3487
lfingers 7.12502
lthumb 14.3638 54.8318
rfemur -13.9763 -7.46258 22.8883
rtibia 30.5185
rfoot -30.7234 -18.1941
rtoes 14.4261
lfemur -21.64 5.58392 -16.3595
ltibia 34.7218
lfoot -11.1546 11.2346
ltoes -7.52868
1351
root -13.6352 17.8611 2.2661 16.8344 77.2701 9.6752
lowerback 2.8703 2.17794 -1.84329
upperback 0.33984 2.87221 1.47534
thorax -1.42531 1.45229 2.42647
lowerneck -18.095 3.14625 -6.15344
upperneck 37.1677 10.456 -4.35293
head 16.4689 3.2921 1.28654
rclavicle 4.9895e-014 -1.35174e-014
rhumerus -34.7 -9.06923 -76.4549
rradius 30.8124
rwrist 20.5156
rhand -22.7054 3.04832
rfingers 7.12502
rthumb 3.72763 -26.8988
lclavicle 4.9895e-014 -1.35174e-014
lhumerus -39.5995 18.9629 71.9084
lradius 26.1206
lwrist -10.0791
lhand -12.9109 26.3567
lfingers 7.12502
lthumb 13.1791 55.9201
rfemur -13.9601 -8.10684 22.6129
rtibia 30.4926
rfoot -30.6537 -18.4011
rtoes 13.1084
lfemur -21.2954 5.07846 -16.2787
ltibia 33.9095
lfoot -11.0808 12.0398
ltoes -7.28625
1352
root -13.6275 17.8543 2.23714 17.3324 77.9775 10.1317
lowerback 2.81371 2.19432 -1.87388
upperback 0.356517 2.89228 1.40112
thorax -1.3753 1.46133 2.36914
lowerneck -18.1137 3.01055 -6.24073
upperneck 37.208 10.2501 -4.23077
head 16.479 3.21255 1.31754
rclavicle -1.6201e-014 1.43125e-014
rhumerus -34.7214 -8.8564 -76.8511
rradius 30.9107
rwrist 20.4836
rhand -22.5643 3.07739
rfingers 7.12502
rthumb 3.86383 -26.8673
lclavicle -1.6201e-014 1.43125e-014
lhumerus -39.5283 18.8656 72.1126
lradius 26.548
lwrist -10.0665
lhand -14.3998 25.8109
lfingers 7.12502
lthumb 11.7435 55.4617
rfemur -13.9083 -8.54095 22.6734
rtibia 30.474
rfoot -30.7827 -18.7065
rtoes 11.148
lfemur -20.9857 4.74363 -15.9173
ltibia 33.0644
lfoot -10.9507 12.7744
ltoes -8.0566
1353
root -13.6169 17.8526 2.2135 19.1754 78.5546 11.7657
lowerback 2.507 2.19399 -2.28428
upperback 0.33859 2.88288 1.32454
thorax -1.23774 1.45669 2.53262
lowerneck -18.1901 2.87903 -6.46829
upperneck 37.3098 10.1168 -4.09094
head 16.5283 3.14141 1.39661
rclavicle 4.14466e-014 1.82882e-014
rhumerus -34.7055 -8.15981 -77.3526
rradius 31.1088
rwrist 20.3485
rhand -22.5211 2.93423
rfingers 7.12502
rthumb 3.90559 -27.0097
lclavicle 4.14466e-014 1.82882e-014
lhumerus -39.4982 19.0121 72.3152
lradius 26.9267
lwrist -10.0972
lhand -14.2705 24.4934
lfingers 7.12502
lthumb 11.8683 54.1371
rfemur -13.9956 -8.61485 22.4618
rtibia 30.3139
rfoot -31.1201 -18.9833
rtoes 10.8982
lfemur -20.9264 4.59728 -15.863
ltibia 32.2865
lfoot -10.791 13.5188
ltoes -8.97052
1354
root -13.6034 17.8558 2.2037 20.3579 79.1996 12.8782
lowerback 2.34792 2.1614 -2.78804
upperback 0.347288 2.83023 1.38013
thorax -1.16371 1.43177 2.8807
lowerneck -18.2979 2.77702 -6.65029
upperneck 37.4615 10.0593 -4.02341
head 16.6218 3.09452 1.45365
rclavicle -1.49089e-015 -7.95139e-015
rhumerus -34.736 -7.33166 -77.7969
rradius 31.396
rwrist 20.0124
rhand -22.4499 2.63363
rfingers 7.12502
rthumb 3.97434 -27.3091
lclavicle -1.49089e-015 -7.95139e-015
lhumerus -39.5513 18.9888 72.6575
lradius 27.3957
lwrist -9.77169
lhand -12.5382 24.2152
lfingers 7.12502
lthumb 13.5383 53.7551
rfemur -13.8537 -8.28516 22.3904
rtibia 29.9995
rfoot -31.6938 -19.4673
rtoes 12.7681
lfemur -20.7797 4.27365 -15.5576
ltibia 31.6373
lfoot -10.6858 14.1731
ltoes -8.68299
1355
root -13.5838 17.8536 2.20562 14.6166 80.0772 7.55041
lowerback 2.73131 2.28139 -2.15819
upperback 0.469788 3.0069 1.6606
thorax -1.24791 1.51922 2.79605
lowerneck -18.1724 2.62088 -6.47066
upperneck 37.5058 9.76558 -4.02512
head 16.6253 3.00578 1.36608
rclavicle 2.98177e-015 7.95139e-015
rhumerus -35.0521 -7.20949 -78.1638
rradius 31.8389
rwrist 19.83
rhand -22.2453 2.63665
rfingers 7.12502
rthumb 4.17194 -27.3022
lclavicle 2.98177e-015 7.95139e-015
lhumerus -39.4937 18.2498 73.0852
lradius 27.866
lwrist -9.14798
lhand -11.5309 24.3097
lfingers 7.12502
lthumb 14.509 53.7824
rfemur -13.0158 -7.58548 23.5848
rtibia 29.6451
rfoot -32.6224 -20.2149
rtoes 14.3374
lfemur -20.0083 3.87683 -13.8431
ltibia 31.0209
lfoot -10.7008 14.5181
ltoes -7.95126
1356
root -13.5653 17.846 2.18975 8.99509 80.775 2.30557
lowerback 3.13874 2.495 -1.4113
upperback 0.534313 3.31469 1.76718
thorax -1.39381 1.67192 2.45697
lowerneck -18.0076 2.35868 -6.25329
upperneck 37.6146 9.26401 -3.92833
head 16.6457 2.85031 1.27604
rclavicle 1.74931e-014 -6.36111e-015
rhumerus -35.3205 -7.8548 -78.3498
rradius 31.9195
rwrist 20.1033
rhand -22.1871 2.84469
rfingers 7.12502
rthumb 4.22812 -27.0931
lclavicle 1.74931e-014 -6.36111e-015
lhumerus -39.3408 17.3836 73.4216
lradius 28.1735
lwrist -8.81947
lhand -11.4258 24.1617
lfingers 7.12502
lthumb 14.6102 53.6271
rfemur -12.2467 -7.35602 24.5863
rtibia 29.3108
rfoot -33.0502 -20.8621
rtoes 13.5039
lfemur -19.2989 3.50728 -12.4163
ltibia 30.4
lfoot -10.6208 14.736
ltoes -7.73136
1357
root -13.5504 17.8444 2.15621 8.27867 81.363 1.62765
lowerback 3.19185 2.71616 -1.25475
upperback 0.530605 3.60956 1.55175
thorax -1.4197 1.81727 2.13147
lowerneck -18.0058 2.05569 -6.00792
upperneck 37.7743 8.70092 -3.80882
head 16.7324 2.66759 1.18473
rclavicle -3.75703e-014 2.38542e-014
rhumerus -35.3129 -8.53987 -78.5974
rradius 31.611
rwrist 20.2671
rhand -22.4993 2.9858
rfingers 7.12502
rthumb 3.92661 -26.9578
lclavicle -3.75703e-014 2.38542e-014
lhumerus -39.0456 16.4829 73.7393
lradius 28.4349
lwrist -8.58192
lhand -11.536 24.0015
lfingers 7.12502
lthumb 14.5041 53.4745
rfemur -11.9841 -7.53584 24.6859
rtibia 29.0555
rfoot -33.0298 -21.4493
rtoes 11.7432
lfemur -19.0286 2.91478 -12.0076
ltibia 29.7656
lfoot -10.4112 15.4815
ltoes -8.3567
1358
root -13.5381 17.8495 2.11479 9.96377 81.9203 3.17709
lowerback 3.14427 2.96362 -1.23412
upperback 0.483478 3.93009 1.10009
thorax -1.42346 1.97464 1.64309
lowerneck -18.1112 1.75906 -5.58498
upperneck 37.9007 8.05819 -3.65656
head 16.8304 2.47825 1.06278
rclavicle 1.80894e-014 -5.1684e-015
rhumerus -35.3335 -9.20843 -79.0609
rradius 31.5292
rwrist 20.1851
rhand -22.8853 3.09586
rfingers 7.12502
rthumb 3.55383 -26.8543
lclavicle 1.80894e-014 -5.1684e-015
lhumerus -38.543 15.308 73.9911
lradius 28.6719
lwrist -7.99034
lhand -11.2834 23.6539
lfingers 7.12502
lthumb 14.7475 53.1093
rfemur -12.0275 -7.80484 24.3477
rtibia 28.9571
rfoot -33.3589 -21.343
rtoes 12.3775
lfemur -18.9473 2.24094 -12.0239
ltibia 29.0681
lfoot -9.93904 16.5865
ltoes -9.38993
1359
root -13.5302 17.8515 2.0623 12.8934 82.4449 5.85177
lowerback 3.06026 3.05239 -1.42479
upperback 0.363613 4.03729 0.86238
thorax -1.49964 2.02894 1.50153
lowerneck -18.1154 1.59813 -5.55311
upperneck 37.9414 7.80141 -3.61429
head 16.8526 2.3857 1.02896
rclavicle 7.45443e-015 -8.34896e-015
rhumerus -35.3974 -9.28019 -79.3082
rradius 31.7176
rwrist 20.2065
rhand -23.0605 3.04768
rfingers 7.12502
rthumb 3.38466 -26.9052
lclavicle 7.45443e-015 -8.34896e-015
lhumerus -38.3731 14.8105 74.3395
lradius 28.9612
lwrist -7.45994
lhand -10.6271 23.4372
lfingers 7.12502
lthumb 15.3796 52.8452
rfemur -12.3065 -8.1163 23.8438
rtibia 28.9666
rfoot -33.7977 -20.9269
rtoes 13.9791
lfemur -19.0088 1.46502 -12.2266
ltibia 28.3087
lfoot -8.96155 17.5945
ltoes -11.118
